<svg width="600" height="600" viewBox="0 0 600 600" fill="none" xmlns="http://www.w3.org/2000/svg">
<g id="izmir-ataturk-lisesi">
<path id="back" d="M4 300C4 137.076 136.076 5 299 5C461.924 5 594 137.076 594 300C594 462.924 461.924 595 299 595C136.076 595 4 462.924 4 300Z" fill="#FEF307"/>
<path id="base" fill-rule="evenodd" clip-rule="evenodd" d="M530.653 300.503C530.653 428.166 427.161 531.658 299.498 531.658C171.834 531.658 68.3418 428.166 68.3418 300.503C68.3418 172.839 171.834 69.3467 299.498 69.3467C427.161 69.3467 530.653 172.839 530.653 300.503ZM309.201 142.647C321.932 144.255 341.63 149.213 350.742 153.099L356.772 155.645L340.022 156.449C310.005 157.789 287.225 164.489 267.66 177.621C240.994 195.444 220.089 225.595 211.915 257.889C208.163 272.63 208.431 299.967 212.451 316.047C216.069 330.653 224.913 349.548 233.221 360.536C241.53 371.524 257.878 386.801 268.732 393.769C278.515 400.067 290.843 406.633 293.121 406.633C294.059 406.633 294.461 389.481 294.461 354.372V302.111H246.22V323.685L228.129 322.881L227.727 300.771C227.057 263.92 230.139 244.489 239.787 224.523C251.982 199.062 278.782 181.508 305.449 181.508H313.221V296.616C313.221 387.337 313.623 412.127 314.963 412.931C318.313 415.209 353.824 414.941 366.287 412.663C387.995 408.643 409.168 398.325 426.186 383.585C430.474 379.833 434.36 377.152 434.762 377.554C435.834 378.761 426.856 392.831 417.074 405.025C386.789 442.68 340.424 464.255 289.637 464.255C245.014 464.255 200.391 444.824 168.766 411.457C148.665 390.285 135.399 364.154 128.699 332.529C125.751 318.861 125.483 289.246 128.163 275.98C137.141 230.687 168.766 186.198 208.565 162.747C236.839 146.265 275.298 138.492 309.201 142.647ZM479.788 219.431L478.983 231.893L488.498 239.129C493.724 243.149 497.744 246.767 497.342 247.303C497.074 247.839 492.116 249.313 486.354 250.653C480.726 251.993 475.499 253.467 474.695 254.137C474.025 254.807 471.747 259.9 469.871 265.528C467.995 271.156 465.851 275.98 465.047 276.248C464.243 276.516 461.027 272.63 457.945 267.404C454.863 262.312 451.513 257.353 450.441 256.415C449.101 255.343 445.349 255.075 437.845 255.745C430.474 256.281 427.124 256.147 427.124 255.209C427.124 254.405 430.474 249.715 434.36 244.757L441.731 235.645L438.381 224.523C436.237 217.688 435.432 212.864 436.102 212.194C436.906 211.39 440.659 212.462 446.019 215.008C450.709 217.152 455.935 219.029 457.677 219.029C459.285 219.029 464.779 216.348 469.737 212.998C474.695 209.648 479.118 206.968 479.654 206.968C480.19 206.968 480.324 212.596 479.788 219.431ZM340.826 137.956C351.278 139.162 352.216 137.956 351.814 125.36L351.412 115.176L333.724 114.372L332.786 123.752C332.384 128.844 332.384 133.936 332.786 135.008C333.188 136.214 336.27 137.286 340.826 137.956ZM350.742 190.218C351.68 190.754 352.082 223.183 352.082 288.174C352.082 369.782 352.35 385.327 353.958 385.997C357.041 387.203 378.481 381.441 388.933 376.616C394.293 374.07 401.53 370.184 404.88 367.772C408.364 365.494 411.714 364.02 412.384 364.422C413.188 364.824 413.724 368.174 413.724 371.658C413.724 377.018 413.054 378.626 409.436 382.111C397.375 393.635 372.585 402.479 349.268 403.551L333.724 404.355L332.786 300.503C332.384 243.417 332.25 195.712 332.652 194.506C332.703 194.335 332.757 194.154 332.812 193.968C332.875 193.756 332.94 193.536 333.006 193.312L333.008 193.304C333.338 192.185 333.7 190.958 333.992 190.084C334.662 188.208 336.002 187.94 342.032 188.61C346.052 189.012 349.938 189.682 350.742 190.218ZM257.744 227.337C262.3 218.09 272.618 207.638 281.329 203.618C285.215 201.742 289.771 200.268 291.513 200.268H294.461V283.35H245.818L246.622 270.888C247.426 257.487 252.25 238.861 257.744 227.337ZM247.182 508.578C247.654 509.3 248.364 509.775 249.313 510.002C250.295 510.238 251.161 510.141 251.909 509.711C252.699 509.256 253.199 508.588 253.41 507.707L260.455 478.333C260.666 477.452 260.553 476.654 260.115 475.94C259.686 475.192 258.98 474.7 257.997 474.465C257.624 474.375 257.206 474.329 256.741 474.325C256.31 474.329 255.896 474.409 255.501 474.565L247.013 477.688C245.8 478.114 245.063 478.869 244.803 479.953C244.6 480.8 244.731 481.602 245.194 482.358C245.658 483.114 246.296 483.59 247.109 483.785C247.821 483.955 248.458 483.911 249.022 483.652L252.552 482.153L246.804 506.122C246.592 507.003 246.719 507.822 247.182 508.578ZM286.649 496.325C287.409 496.876 288.085 497.496 288.674 498.187C289.554 499.218 290.2 500.313 290.613 501.473C291.025 502.634 291.174 503.803 291.059 504.982C290.867 506.959 290.135 508.726 288.864 510.282C287.63 511.808 286.046 512.984 284.11 513.811C282.178 514.603 280.084 514.889 277.83 514.67C275.576 514.451 273.578 513.767 271.834 512.617C270.094 511.433 268.748 509.972 267.797 508.234C266.884 506.465 266.523 504.592 266.716 502.616C266.871 501.02 267.333 499.683 268.104 498.602C268.912 497.491 269.857 496.585 270.941 495.885C271.484 495.546 272.021 495.24 272.55 494.966C272.103 494.659 271.665 494.31 271.237 493.919C270.503 493.182 269.925 492.286 269.503 491.23C269.081 490.174 268.935 488.969 269.067 487.617C269.255 485.675 269.928 483.973 271.086 482.51C272.247 481.013 273.722 479.878 275.512 479.107C277.337 478.339 279.29 478.057 281.371 478.259C283.486 478.465 285.33 479.117 286.904 480.215C288.512 481.316 289.741 482.713 290.592 484.406C291.446 486.065 291.778 487.865 291.59 489.807C291.445 491.298 291.028 492.518 290.341 493.466C289.654 494.414 288.865 495.143 287.976 495.651C287.521 495.911 287.078 496.136 286.649 496.325ZM275.68 490.885C275.334 490.117 275.207 489.264 275.298 488.328C275.433 486.941 276.013 485.842 277.037 485.031C278.099 484.189 279.358 483.839 280.814 483.981C282.236 484.119 283.37 484.702 284.215 485.729C285.098 486.725 285.472 487.917 285.337 489.304C285.246 490.24 284.94 491.05 284.419 491.735C283.932 492.423 283.285 492.955 282.478 493.331C281.709 493.677 280.84 493.802 279.869 493.708C278.898 493.613 278.051 493.321 277.328 492.831C276.609 492.306 276.06 491.657 275.68 490.885ZM282.747 507.85C281.505 508.744 280.051 509.11 278.387 508.949C276.722 508.787 275.367 508.147 274.32 507.03C273.277 505.879 272.826 504.575 272.968 503.118C273.065 502.113 273.413 501.236 274.011 500.489C274.609 499.742 275.38 499.187 276.326 498.824C277.274 498.426 278.304 498.281 279.413 498.389C280.523 498.497 281.505 498.838 282.36 499.411C283.217 499.949 283.867 500.643 284.31 501.491C284.753 502.339 284.925 503.266 284.827 504.271C284.686 505.728 283.992 506.921 282.747 507.85ZM320.032 494.988C319.623 495.316 319.221 495.607 318.826 495.862C319.664 496.286 320.428 496.793 321.118 497.384C322.148 498.264 322.958 499.245 323.546 500.327C324.135 501.408 324.465 502.54 324.536 503.723C324.655 505.705 324.208 507.564 323.195 509.301C322.215 511 320.834 512.409 319.052 513.529C317.267 514.613 315.244 515.223 312.984 515.359C310.723 515.495 308.642 515.131 306.74 514.268C304.836 513.37 303.279 512.138 302.068 510.57C300.889 508.965 300.241 507.172 300.121 505.189C300.025 503.59 300.273 502.196 300.865 501.009C301.49 499.784 302.282 498.742 303.243 497.882C303.727 497.462 304.209 497.076 304.689 496.722C304.199 496.489 303.712 496.213 303.228 495.893C302.388 495.28 301.677 494.485 301.095 493.508C300.513 492.531 300.181 491.364 300.099 490.008C299.982 488.06 300.381 486.273 301.296 484.648C302.208 482.987 303.488 481.637 305.136 480.595C306.819 479.552 308.703 478.967 310.79 478.842C312.911 478.715 314.835 479.07 316.561 479.909C318.321 480.746 319.754 481.933 320.859 483.473C321.961 484.977 322.571 486.703 322.688 488.651C322.778 490.146 322.557 491.416 322.027 492.46C321.496 493.504 320.831 494.347 320.032 494.988ZM306.366 489.736C306.422 490.675 306.681 491.497 307.142 492.202C307.638 492.906 308.282 493.46 309.075 493.866C309.865 494.238 310.747 494.394 311.721 494.336C312.694 494.277 313.534 494.017 314.239 493.556C314.977 493.058 315.533 492.431 315.906 491.676C316.315 490.918 316.491 490.07 316.434 489.131C316.351 487.74 315.795 486.622 314.767 485.776C313.771 484.893 312.561 484.495 311.135 484.58C309.674 484.668 308.485 485.211 307.568 486.208C306.683 487.169 306.282 488.345 306.366 489.736ZM312.639 509.621C314.308 509.52 315.686 508.931 316.773 507.854C317.858 506.742 318.357 505.455 318.269 503.995C318.209 502.986 317.894 502.097 317.324 501.329C316.754 500.56 316.004 499.977 315.072 499.579C314.139 499.147 313.116 498.964 312.003 499.031C310.89 499.098 309.896 499.402 309.021 499.943C308.144 500.449 307.468 501.118 306.995 501.949C306.521 502.781 306.315 503.7 306.375 504.709C306.463 506.17 307.112 507.387 308.322 508.362C309.531 509.301 310.969 509.721 312.639 509.621ZM350.536 490.375C350.887 490.062 351.238 489.711 351.591 489.324C352.28 488.565 352.805 487.629 353.166 486.515C353.527 485.401 353.546 484.112 353.224 482.649C352.804 480.743 351.932 479.134 350.607 477.82C349.276 476.473 347.675 475.523 345.806 474.972C343.97 474.413 342.014 474.363 339.939 474.82C337.897 475.27 336.127 476.142 334.629 477.435C333.164 478.721 332.111 480.256 331.469 482.038C330.82 483.787 330.705 485.614 331.125 487.519C331.417 488.846 331.927 489.947 332.655 490.821C333.383 491.695 334.209 492.369 335.134 492.843C335.663 493.083 336.187 493.28 336.707 493.434C336.288 493.858 335.872 494.315 335.46 494.805C334.646 495.805 334.026 496.959 333.6 498.265C333.201 499.531 333.174 500.946 333.519 502.511C333.946 504.45 334.868 506.12 336.282 507.521C337.723 508.88 339.454 509.855 341.475 510.444C343.488 510.999 345.601 511.033 347.812 510.546C350.024 510.058 351.926 509.139 353.52 507.789C355.106 506.405 356.25 504.797 356.952 502.966C357.681 501.093 357.832 499.186 357.404 497.247C357.149 496.09 356.647 495.024 355.896 494.047C355.146 493.071 354.193 492.228 353.038 491.52C352.264 491.045 351.43 490.663 350.536 490.375ZM338.424 488.586C337.858 487.962 337.474 487.19 337.272 486.272C336.972 484.911 337.184 483.687 337.907 482.599C338.657 481.471 339.747 480.749 341.176 480.434C342.571 480.127 343.829 480.331 344.95 481.047C346.098 481.722 346.822 482.74 347.122 484.101C347.324 485.019 347.283 485.885 346.998 486.697C346.747 487.501 346.296 488.207 345.645 488.814C345.021 489.38 344.232 489.768 343.279 489.978C342.327 490.188 341.431 490.171 340.593 489.928C339.747 489.651 339.024 489.203 338.424 488.586ZM350.383 502.54C349.478 503.775 348.208 504.572 346.575 504.932C344.942 505.292 343.455 505.102 342.115 504.363C340.767 503.589 339.936 502.488 339.621 501.059C339.403 500.072 339.464 499.132 339.802 498.237C340.139 497.342 340.702 496.575 341.489 495.938C342.269 495.267 343.203 494.811 344.292 494.571C345.381 494.331 346.42 494.352 347.409 494.633C348.392 494.881 349.224 495.339 349.907 496.009C350.59 496.68 351.04 497.508 351.257 498.495C351.572 499.924 351.281 501.272 350.383 502.54Z" fill="#6C3E73"/>
<g id="text">
<path d="M34.5125 407.025C34.104 406.025 34.0619 405.139 34.3862 404.367C34.7559 403.614 35.4407 403.033 36.4405 402.624L64.9361 390.983C65.9682 390.561 66.8638 390.496 67.623 390.788C68.3953 391.113 68.9857 391.775 69.3941 392.775C69.8026 393.774 69.8381 394.644 69.5007 395.384C69.1764 396.157 68.4982 396.754 67.4661 397.175L38.9705 408.817C37.9706 409.226 37.075 409.29 36.2836 409.011C35.5245 408.719 34.9341 408.057 34.5125 407.025ZM73.071 391.272C72.6625 390.273 72.6043 389.393 72.8964 388.634C73.2206 387.862 73.8666 387.278 74.8342 386.883C75.8018 386.487 76.6556 386.458 77.3957 386.796C78.1357 387.133 78.71 387.802 79.1184 388.802C79.5401 389.834 79.5983 390.713 79.2931 391.44C79.0011 392.199 78.3712 392.777 77.4036 393.172C76.4361 393.567 75.5661 393.603 74.7938 393.278C74.0669 392.973 73.4927 392.305 73.071 391.272Z" fill="#6C3E73"/>
<path d="M42.309 423.945C41.8997 423.176 41.718 422.464 41.7636 421.808C41.8256 421.183 42.069 420.639 42.4936 420.176C42.9654 419.728 43.5651 419.409 44.2928 419.219C45.0677 419.043 45.948 419.028 46.9336 419.175L80.2106 424.079L78.3191 425.086L69.6517 408.801C69.1934 407.939 69.0567 407.164 69.2418 406.473C69.4432 405.813 69.9437 405.271 70.7434 404.845C71.543 404.419 72.2574 404.316 72.8864 404.533C73.5625 404.765 74.1297 405.312 74.5881 406.173L84.7532 425.273C85.1625 426.042 85.3361 426.739 85.274 427.364C85.2284 428.02 84.9851 428.564 84.544 428.996C84.1194 429.458 83.5197 429.778 82.7448 429.953C81.9863 430.16 81.1143 430.189 80.1286 430.043L46.8977 425.114L48.7431 424.132L57.7788 441.109C58.2372 441.97 58.3656 442.731 58.1642 443.391C58.0099 444.065 57.5329 444.615 56.7333 445.04C55.9336 445.466 55.1957 445.563 54.5196 445.33C53.8598 445.129 53.3008 444.598 52.8425 443.737L42.309 423.945Z" fill="#6C3E73"/>
<path d="M61.3441 458.449C60.7573 457.67 60.5294 456.904 60.6604 456.151C60.7913 455.398 61.2465 454.728 62.0258 454.142L87.1173 435.248C87.9244 434.641 88.7044 434.402 89.4572 434.533C90.2379 434.643 90.9216 435.088 91.5084 435.867C92.0323 436.563 92.3018 437.211 92.3169 437.81C92.3808 438.416 92.2184 439.127 91.8297 439.943L80.5149 464.621L79.5089 463.285L106.353 459.231C107.245 459.083 107.963 459.11 108.506 459.311C109.078 459.491 109.626 459.929 110.15 460.625C110.737 461.404 110.965 462.17 110.834 462.923C110.731 463.655 110.275 464.325 109.468 464.932L84.3768 483.825C83.5975 484.412 82.828 484.665 82.0683 484.582C81.3295 484.528 80.6563 484.097 80.0485 483.29C79.4617 482.511 79.2338 481.745 79.3648 480.992C79.4957 480.239 79.9509 479.569 80.7302 478.982L100.06 464.428L100.752 465.346L78.1602 468.619C77.4775 468.697 76.9095 468.666 76.4563 468.528C76.0031 468.389 75.5774 468.056 75.1792 467.527C74.7811 466.998 74.5675 466.483 74.5387 465.981C74.5377 465.459 74.6656 464.904 74.9223 464.318L84.2897 443.396L85.0442 444.398L65.6724 458.984C64.8931 459.571 64.1235 459.824 63.3639 459.741C62.6251 459.687 61.9519 459.256 61.3441 458.449Z" fill="#6C3E73"/>
<path d="M94.3294 498.507C93.5763 497.733 93.2056 496.927 93.2173 496.089C93.2782 495.253 93.6957 494.458 94.47 493.705L116.536 472.243C117.336 471.466 118.142 471.07 118.955 471.057C119.793 471.069 120.588 471.461 121.341 472.236C122.094 473.01 122.453 473.803 122.417 474.616C122.405 475.454 122 476.261 121.2 477.038L99.134 498.5C98.3597 499.253 97.5535 499.648 96.7153 499.686C95.902 499.699 95.1067 499.306 94.3294 498.507ZM124.188 469.467C123.435 468.692 123.052 467.898 123.039 467.085C123.05 466.248 123.431 465.465 124.18 464.736C124.929 464.007 125.71 463.661 126.523 463.697C127.335 463.732 128.118 464.138 128.871 464.912C129.649 465.711 130.032 466.505 130.021 467.293C130.034 468.106 129.666 468.877 128.917 469.606C128.168 470.335 127.374 470.693 126.537 470.682C125.748 470.671 124.966 470.266 124.188 469.467Z" fill="#6C3E73"/>
<path d="M109.001 512.844C108.169 512.156 107.713 511.395 107.634 510.561C107.604 509.723 107.933 508.887 108.622 508.055L128.005 484.615C128.715 483.756 129.476 483.3 130.288 483.248C131.122 483.169 131.955 483.473 132.787 484.162L142.494 492.188C145.608 494.763 147.39 497.502 147.838 500.405C148.308 503.28 147.433 506.061 145.213 508.746C143.77 510.491 142.137 511.673 140.315 512.291C138.52 512.931 136.619 512.987 134.614 512.459C132.609 511.932 130.573 510.813 128.506 509.103L129.368 508.799L130.697 509.898C131.798 510.808 132.529 511.865 132.89 513.068C133.279 514.293 133.304 515.739 132.967 517.404L131.358 525.5C131.214 526.33 130.907 527.003 130.436 527.518C129.965 528.032 129.397 528.309 128.733 528.347C128.09 528.358 127.407 528.064 126.682 527.465C125.957 526.865 125.488 526.229 125.276 525.557C125.086 524.857 125.083 524.041 125.267 523.108L127.394 512.253C127.665 510.94 127.588 509.859 127.16 509.008C126.783 508.153 126.083 507.304 125.063 506.46L121.237 503.296L113.777 512.318C113.089 513.15 112.33 513.63 111.501 513.758C110.693 513.86 109.86 513.555 109.001 512.844ZM124.401 499.47L130.684 504.665C132.536 506.197 134.243 506.976 135.805 507.001C137.415 507.022 138.853 506.267 140.119 504.737C141.362 503.233 141.812 501.706 141.467 500.155C141.171 498.599 140.096 497.055 138.244 495.523L131.961 490.328L124.401 499.47Z" fill="#6C3E73"/>
<path d="M156.826 547.607C156.08 547.229 155.56 546.751 155.267 546.173C155.005 545.611 154.97 545.026 155.16 544.419C155.366 543.782 155.805 543.184 156.478 542.627L182.602 521.589C183.463 520.892 184.267 520.499 185.016 520.41C185.811 520.305 186.582 520.441 187.328 520.819C188.042 521.181 188.577 521.706 188.932 522.394C189.333 523.066 189.508 523.955 189.455 525.061L187.993 558.592C187.973 559.48 187.767 560.196 187.374 560.739C186.982 561.283 186.482 561.615 185.873 561.736C185.281 561.827 184.627 561.691 183.912 561.329C183.042 560.888 182.46 560.339 182.168 559.684C181.922 559.012 181.833 558.147 181.901 557.088L182.437 548.513L184.128 551.42L164.454 541.453L167.798 541.097L161.248 546.625C160.388 547.322 159.637 547.762 158.998 547.945C158.358 548.129 157.634 548.016 156.826 547.607ZM183.762 527.625L169.371 539.843L168.915 537.737L184.486 545.626L182.564 546.527L183.856 527.672L183.762 527.625Z" fill="#6C3E73"/>
<path d="M208.563 570.468C207.539 570.125 206.84 569.579 206.467 568.829C206.137 568.057 206.144 567.159 206.487 566.135L215.452 539.376L205.789 536.139C204.93 535.851 204.33 535.393 203.99 534.764C203.693 534.114 203.683 533.376 203.96 532.55C204.248 531.691 204.695 531.124 205.301 530.849C205.952 530.553 206.707 530.549 207.565 530.836L233.235 539.436C234.094 539.724 234.677 540.176 234.984 540.794C235.336 541.389 235.368 542.117 235.08 542.976C234.804 543.801 234.334 544.379 233.673 544.709C233.055 545.016 232.317 545.026 231.458 544.738L221.795 541.501L212.83 568.26C212.487 569.284 211.952 570.005 211.224 570.423C210.507 570.807 209.62 570.823 208.563 570.468Z" fill="#6C3E73"/>
<path d="M234.319 578.224C233.496 578.076 232.861 577.768 232.414 577.298C232.002 576.835 231.799 576.285 231.807 575.649C231.821 574.979 232.071 574.281 232.555 573.554L251.537 545.899C252.161 544.985 252.819 544.377 253.51 544.077C254.242 543.748 255.019 543.657 255.842 543.805C256.631 543.947 257.294 544.296 257.831 544.852C258.409 545.381 258.831 546.182 259.099 547.257L267.328 579.796C267.564 580.652 267.572 581.397 267.352 582.03C267.132 582.663 266.748 583.125 266.2 583.416C265.659 583.673 264.993 583.731 264.205 583.589C263.244 583.417 262.53 583.058 262.061 582.514C261.633 581.941 261.3 581.138 261.06 580.104L259.111 571.737L261.566 574.036L239.858 570.139L242.959 568.837L238.273 576.014C237.649 576.928 237.056 577.565 236.496 577.925C235.936 578.284 235.21 578.384 234.319 578.224ZM254.382 551.348L244.105 567.185L243.064 565.298L260.244 568.383L258.663 569.798L254.485 551.367L254.382 551.348Z" fill="#6C3E73"/>
<path d="M290.442 585.264C289.363 585.229 288.536 584.907 287.963 584.296C287.426 583.651 287.175 582.789 287.209 581.709L288.112 553.503L277.926 553.177C277.02 553.148 276.314 552.881 275.808 552.377C275.337 551.839 275.115 551.135 275.143 550.264C275.172 549.359 275.437 548.688 275.94 548.251C276.477 547.78 277.199 547.559 278.105 547.588L305.162 548.453C306.067 548.482 306.756 548.748 307.228 549.251C307.736 549.721 307.975 550.408 307.946 551.314C307.919 552.184 307.635 552.872 307.096 553.378C306.593 553.85 305.889 554.071 304.983 554.042L294.798 553.717L293.895 581.923C293.861 583.003 293.555 583.847 292.978 584.456C292.402 585.03 291.556 585.3 290.442 585.264Z" fill="#6C3E73"/>
<path d="M332.202 583.704C329.675 583.993 327.405 583.919 325.391 583.482C323.412 583.042 321.692 582.257 320.23 581.126C318.765 579.961 317.593 578.447 316.714 576.583C315.835 574.72 315.249 572.507 314.956 569.946L312.828 551.305C312.698 550.163 312.878 549.283 313.368 548.666C313.894 548.045 314.693 547.673 315.766 547.55C316.839 547.428 317.684 547.612 318.301 548.103C318.953 548.589 319.344 549.404 319.474 550.546L321.597 569.135C321.972 572.423 322.999 574.814 324.677 576.305C326.386 577.758 328.677 578.321 331.55 577.993C334.423 577.665 336.511 576.602 337.814 574.805C339.113 572.974 339.574 570.414 339.199 567.125L337.077 548.536C336.946 547.394 337.126 546.514 337.617 545.897C338.142 545.276 338.941 544.905 340.014 544.782C341.053 544.663 341.881 544.849 342.498 545.34C343.15 545.827 343.541 546.641 343.671 547.784L345.799 566.424C346.187 569.817 345.924 572.74 345.012 575.193C344.134 577.643 342.62 579.587 340.47 581.025C338.316 582.428 335.56 583.321 332.202 583.704ZM332.416 541.81C331.378 541.928 330.55 541.742 329.933 541.252C329.316 540.761 328.948 539.996 328.829 538.958C328.715 537.954 328.903 537.144 329.393 536.526C329.884 535.909 330.649 535.542 331.687 535.423C332.691 535.308 333.501 535.496 334.118 535.987C334.736 536.478 335.101 537.225 335.216 538.229C335.335 539.267 335.149 540.095 334.658 540.712C334.202 541.325 333.455 541.691 332.416 541.81ZM322.603 542.93C321.599 543.045 320.771 542.859 320.119 542.372C319.502 541.881 319.134 541.117 319.016 540.078C318.901 539.074 319.089 538.264 319.58 537.647C320.105 537.026 320.87 536.658 321.873 536.543C322.912 536.425 323.74 536.611 324.357 537.101C324.974 537.592 325.34 538.339 325.454 539.343C325.573 540.382 325.387 541.209 324.896 541.827C324.406 542.444 323.641 542.812 322.603 542.93Z" fill="#6C3E73"/>
<path d="M364.567 578.245C363.524 578.528 362.64 578.461 361.913 578.044C361.211 577.584 360.719 576.833 360.436 575.791L352.48 546.434C352.188 545.358 352.256 544.473 352.681 543.78C353.098 543.054 353.828 542.549 354.87 542.267L367.027 538.972C370.928 537.915 374.192 538.041 376.821 539.35C379.441 540.625 381.207 542.944 382.118 546.307C382.71 548.493 382.733 550.508 382.186 552.353C381.673 554.189 380.622 555.773 379.034 557.106C377.446 558.439 375.358 559.456 372.768 560.158L373.017 559.278L374.682 558.827C376.06 558.453 377.345 558.466 378.536 558.865C379.761 559.255 380.956 560.068 382.122 561.305L387.805 567.291C388.4 567.888 388.772 568.527 388.92 569.209C389.069 569.89 388.967 570.513 388.615 571.078C388.253 571.609 387.619 571.998 386.711 572.244C385.803 572.49 385.013 572.506 384.341 572.291C383.66 572.042 382.991 571.573 382.335 570.885L374.698 562.883C373.783 561.904 372.855 561.343 371.914 561.201C370.998 561.016 369.9 561.097 368.623 561.444L363.831 562.742L366.893 574.041C367.175 575.084 367.129 575.98 366.755 576.732C366.372 577.449 365.643 577.954 364.567 578.245ZM362.532 557.95L370.401 555.818C372.721 555.189 374.342 554.244 375.264 552.984C376.21 551.68 376.424 550.07 375.904 548.153C375.394 546.27 374.406 545.022 372.94 544.409C371.499 543.752 369.618 543.739 367.298 544.367L359.429 546.5L362.532 557.95Z" fill="#6C3E73"/>
<path d="M404.43 565.891C403.439 566.321 402.554 566.381 401.775 566.073C401.014 565.719 400.419 565.046 399.99 564.055L387.741 535.758C387.298 534.735 387.222 533.857 387.512 533.124C387.82 532.345 388.47 531.741 389.461 531.312C390.452 530.883 391.321 530.829 392.068 531.151C392.833 531.428 393.437 532.077 393.88 533.101L399.174 545.331L399.27 545.289L407.056 525.518C407.346 524.785 407.691 524.18 408.092 523.703C408.493 523.225 409.013 522.848 409.653 522.571C410.58 522.17 411.339 522.126 411.93 522.44C412.554 522.739 412.956 523.23 413.137 523.911C413.349 524.578 413.302 525.301 412.994 526.08L404.989 546.003L403.833 543.2L424.897 551.736C425.845 552.084 426.487 552.604 426.824 553.293C427.16 553.983 427.193 554.671 426.921 555.358C426.667 556 426.092 556.514 425.197 556.902C424.429 557.234 423.737 557.344 423.119 557.232C422.533 557.106 421.805 556.871 420.934 556.526L400.661 548.502L400.565 548.544L406.129 561.397C406.558 562.389 406.642 563.283 406.379 564.08C406.103 564.845 405.453 565.449 404.43 565.891Z" fill="#6C3E73"/>
<path d="M458.299 537.325C457.416 537.946 456.561 538.185 455.736 538.041C454.891 537.868 454.158 537.34 453.537 536.457L436.193 511.789C435.552 510.877 435.299 510.032 435.434 509.256C435.578 508.431 436.092 507.707 436.975 507.086C437.859 506.465 438.699 506.236 439.496 506.4C440.301 506.516 441.024 507.029 441.665 507.941L457.716 530.771L470.114 522.054C470.884 521.513 471.609 521.302 472.288 521.42C472.996 521.519 473.611 521.938 474.132 522.68C474.653 523.421 474.85 524.155 474.723 524.883C474.604 525.563 474.16 526.173 473.391 526.714L458.299 537.325Z" fill="#6C3E73"/>
<path d="M486.759 516.176C485.94 516.88 485.113 517.201 484.278 517.139C483.446 517.027 482.678 516.562 481.974 515.743L461.898 492.409C461.171 491.563 460.825 490.735 460.861 489.922C460.924 489.087 461.365 488.317 462.184 487.612C463.002 486.908 463.816 486.599 464.625 486.684C465.46 486.747 466.241 487.201 466.969 488.046L487.044 511.38C487.749 512.199 488.094 513.028 488.081 513.867C488.044 514.679 487.604 515.449 486.759 516.176ZM459.593 484.602C458.774 485.306 457.959 485.64 457.146 485.604C456.311 485.541 455.552 485.114 454.871 484.321C454.189 483.529 453.891 482.728 453.976 481.919C454.062 481.111 454.514 480.354 455.333 479.65C456.178 478.922 456.993 478.588 457.779 478.647C458.592 478.684 459.339 479.098 460.021 479.89C460.703 480.683 461.012 481.496 460.949 482.332C460.89 483.118 460.438 483.874 459.593 484.602Z" fill="#6C3E73"/>
<path d="M508.414 495.658C507.361 496.772 506.219 497.802 504.989 498.749C503.784 499.719 502.55 500.542 501.287 501.219C500 501.871 498.731 502.35 497.483 502.656C496.748 502.825 496.082 502.794 495.484 502.565C494.886 502.335 494.409 502.003 494.051 501.57C493.693 501.087 493.481 500.575 493.417 500.035C493.351 499.445 493.471 498.912 493.778 498.435C494.085 497.958 494.618 497.623 495.377 497.429C497.088 496.937 498.682 496.215 500.159 495.261C501.635 494.308 503.02 493.148 504.312 491.78C506.203 489.78 507.25 488.013 507.454 486.48C507.632 484.922 507.189 483.64 506.126 482.635C505.239 481.797 504.232 481.468 503.103 481.648C501.999 481.802 500.54 482.509 498.727 483.767L493.904 487.119C491.124 489.046 488.576 490.042 486.262 490.107C483.945 490.122 481.8 489.197 479.825 487.33C478.584 486.157 477.697 484.839 477.163 483.375C476.629 481.912 476.425 480.377 476.553 478.771C476.704 477.14 477.188 475.512 478.005 473.888C478.821 472.213 479.958 470.604 481.418 469.06C482.855 467.54 484.409 466.277 486.081 465.269C487.753 464.26 489.471 463.559 491.234 463.164C491.896 463.023 492.489 463.08 493.014 463.336C493.562 463.567 494.003 463.912 494.337 464.371C494.645 464.806 494.806 465.294 494.822 465.836C494.837 466.378 494.666 466.888 494.31 467.366C493.978 467.819 493.408 468.168 492.602 468.413C491.185 468.847 489.907 469.437 488.77 470.184C487.633 470.931 486.537 471.861 485.484 472.975C484.383 474.14 483.602 475.295 483.142 476.442C482.681 477.589 482.539 478.677 482.716 479.707C482.891 480.688 483.384 481.561 484.194 482.327C485.106 483.189 486.127 483.579 487.259 483.498C488.365 483.393 489.764 482.75 491.456 481.569L496.243 478.255C499.144 476.251 501.739 475.18 504.027 475.042C506.339 474.878 508.444 475.694 510.343 477.489C511.559 478.638 512.421 479.932 512.929 481.372C513.462 482.786 513.64 484.297 513.463 485.904C513.311 487.486 512.814 489.102 511.973 490.752C511.132 492.402 509.946 494.037 508.414 495.658Z" fill="#6C3E73"/>
<path d="M527.243 472.931C526.571 473.864 525.811 474.412 524.964 474.575C524.109 474.689 523.215 474.411 522.282 473.739L498.151 456.362C497.218 455.69 496.684 454.941 496.55 454.114C496.407 453.239 496.672 452.334 497.344 451.401L508.246 436.261C508.755 435.554 509.326 435.149 509.958 435.046C510.611 434.915 511.276 435.094 511.955 435.583C512.661 436.092 513.07 436.687 513.181 437.367C513.284 438 513.081 438.669 512.572 439.376L503.349 452.184L511.577 458.108L520.128 446.234C520.657 445.499 521.238 445.08 521.87 444.977C522.502 444.874 523.172 445.077 523.879 445.586C524.585 446.095 524.99 446.665 525.093 447.298C525.196 447.93 524.983 448.613 524.453 449.349L515.903 461.223L524.597 467.484L533.819 454.676C534.328 453.969 534.899 453.564 535.531 453.462C536.184 453.33 536.863 453.519 537.57 454.028C538.277 454.537 538.672 455.122 538.754 455.782C538.857 456.415 538.654 457.084 538.145 457.791L527.243 472.931Z" fill="#6C3E73"/>
<path d="M552.896 433.821C552.174 435.173 551.343 436.467 550.406 437.704C549.499 438.958 548.525 440.077 547.485 441.062C546.414 442.03 545.317 442.826 544.194 443.45C543.529 443.806 542.878 443.952 542.241 443.888C541.604 443.824 541.056 443.63 540.597 443.306C540.124 442.934 539.785 442.496 539.581 441.992C539.362 441.441 539.338 440.894 539.508 440.354C539.679 439.813 540.105 439.349 540.785 438.962C542.307 438.037 543.654 436.92 544.828 435.612C546.001 434.303 547.032 432.819 547.918 431.16C549.216 428.733 549.761 426.752 549.553 425.219C549.315 423.67 548.55 422.55 547.26 421.86C546.184 421.285 545.126 421.233 544.084 421.703C543.059 422.143 541.838 423.209 540.42 424.9L536.65 429.404C534.475 431.994 532.28 433.626 530.064 434.298C527.833 434.923 525.52 434.595 523.123 433.314C521.617 432.509 520.414 431.471 519.514 430.2C518.613 428.928 518.013 427.501 517.713 425.919C517.43 424.306 517.468 422.608 517.828 420.825C518.174 418.995 518.848 417.143 519.85 415.269C520.836 413.425 522.002 411.797 523.35 410.384C524.698 408.971 526.17 407.842 527.768 406.997C528.368 406.686 528.956 406.585 529.529 406.694C530.119 406.773 530.636 406.989 531.078 407.344C531.49 407.683 531.774 408.111 531.932 408.63C532.089 409.149 532.059 409.686 531.841 410.241C531.64 410.765 531.182 411.252 530.469 411.7C529.216 412.492 528.139 413.398 527.238 414.418C526.338 415.437 525.526 416.623 524.803 417.975C524.048 419.389 523.599 420.709 523.456 421.937C523.314 423.164 523.463 424.252 523.905 425.199C524.333 426.099 525.038 426.812 526.021 427.337C527.127 427.929 528.216 428.036 529.286 427.66C530.325 427.268 531.506 426.279 532.827 424.694L536.572 420.236C538.843 417.539 541.065 415.823 543.236 415.087C545.423 414.32 547.669 414.553 549.974 415.785C551.449 416.573 552.621 417.595 553.491 418.85C554.377 420.074 554.947 421.485 555.199 423.082C555.468 424.648 555.415 426.337 555.038 428.151C554.661 429.964 553.947 431.854 552.896 433.821Z" fill="#6C3E73"/>
<path d="M565.229 407.338C564.821 408.338 564.23 409 563.458 409.324C562.667 409.603 561.771 409.538 560.771 409.13L532.276 397.488C531.244 397.066 530.559 396.486 530.221 395.745C529.897 394.973 529.939 394.087 530.348 393.087C530.756 392.087 531.34 391.441 532.099 391.149C532.871 390.825 533.773 390.874 534.806 391.295L563.301 402.937C564.301 403.346 564.986 403.926 565.356 404.68C565.693 405.42 565.651 406.306 565.229 407.338ZM526.671 391.585C526.262 392.585 525.688 393.254 524.948 393.591C524.176 393.915 523.306 393.88 522.338 393.485C521.37 393.089 520.741 392.512 520.449 391.753C520.157 390.994 520.215 390.114 520.623 389.114C521.045 388.082 521.619 387.414 522.346 387.108C523.086 386.771 523.94 386.8 524.908 387.195C525.875 387.591 526.521 388.174 526.845 388.947C527.151 389.674 527.092 390.553 526.671 391.585Z" fill="#6C3E73"/>
</g>
<path id="elips" fill-rule="evenodd" clip-rule="evenodd" d="M300 6.03015C137.645 6.03015 6.03015 137.645 6.03015 300C6.03015 462.355 137.645 593.97 300 593.97C462.355 593.97 593.97 462.355 593.97 300C593.97 137.645 462.355 6.03015 300 6.03015ZM0 300C0 134.315 134.315 0 300 0C465.685 0 600 134.315 600 300C600 465.685 465.685 600 300 600C134.315 600 0 465.685 0 300Z" fill="#6C3E73"/>
</g>
</svg>
